<svg id="Capa_1" enable-background="new 0 0 512 512" height="512" viewBox="0 0 512 512" width="512" xmlns="http://www.w3.org/2000/svg" xmlns:xlink="http://www.w3.org/1999/xlink"><linearGradient id="SVGID_1_" gradientUnits="userSpaceOnUse" x1="256" x2="256" y1="512" y2="0"><stop offset="0" stop-color="#ffe59a"/><stop offset="1" stop-color="#ffffd5"/></linearGradient><linearGradient id="SVGID_2_" gradientUnits="userSpaceOnUse" x1="256" x2="256" y1="407" y2="105"><stop offset="0" stop-color="#ffde00"/><stop offset="1" stop-color="#fd5900"/></linearGradient><g><g><circle cx="256" cy="256" fill="url(#SVGID_1_)" r="256"/></g><g><g><path d="m256 211.585c-24.536 0-44.5 19.925-44.5 44.412s19.964 44.412 44.5 44.412 44.5-19.925 44.5-44.412-19.964-44.412-44.5-44.412zm-129.771-16.116s.001 0 0 0c-.518.37-.496.354 0 0zm134.942-88.817c-.038-.027-.033-.023 0 0zm119.428 175.993h-31.818l16.126-80.195 10.521 7.487c4.056 2.863 9.587 1.885 12.42-2.073 2.851-3.999 1.921-9.542-2.077-12.396-2.148-1.531-122.67-87.441-124.599-88.816-3.094-2.203-7.248-2.203-10.342 0-1.679 1.197-117.122 83.486-124.599 88.816-3.998 2.854-4.927 8.397-2.077 12.395 2.831 3.955 8.36 4.938 12.42 2.073l10.521-7.487 16.126 80.195h-31.818c-4.919 0-8.9 3.973-8.9 8.882 0 4.91 3.981 8.883 8.9 8.883h35.39l7.145 35.53h-24.736c-4.919 0-8.9 3.973-8.9 8.883s3.981 8.882 8.9 8.882h213.598c4.919 0 8.9-3.973 8.9-8.882s-3.981-8.883-8.9-8.883h-24.736l7.145-35.53h35.39c4.919 0 8.9-3.973 8.9-8.883 0-4.908-3.981-8.881-8.9-8.881zm-142.399-124.354h35.6c4.919 0 8.9 3.973 8.9 8.883s-3.981 8.882-8.9 8.882h-35.6c-4.919 0-8.9-3.973-8.9-8.882 0-4.911 3.981-8.883 8.9-8.883zm17.8 159.884c-34.348 0-62.299-27.897-62.299-62.177s27.951-62.178 62.299-62.178 62.299 27.897 62.299 62.177-27.951 62.178-62.299 62.178zm-26.7 79.942c0 4.91 3.981 8.883 8.9 8.883h35.6c4.919 0 8.9-3.973 8.9-8.883v-26.647h-53.4z" fill="url(#SVGID_2_)"/></g></g></g></svg>